<svg xmlns="http://www.w3.org/2000/svg" xmlns:xlink="http://www.w3.org/1999/xlink" width="1920" zoomAndPan="magnify" viewBox="0 0 1440 449.999984" height="600" preserveAspectRatio="xMidYMid meet" version="1.2"><defs><clipPath id="c9fa66fc69"><path d="M 283 89.949219 L 860 89.949219 L 860 213 L 283 213 Z M 283 89.949219 "/></clipPath><clipPath id="68496e4a89"><path d="M 0 201 L 317 201 L 317 438.699219 L 0 438.699219 Z M 0 201 "/></clipPath><clipPath id="ea3b443b69"><path d="M 827.035156 140.40625 L 1439.785156 140.40625 L 1439.785156 450 L 827.035156 450 Z M 827.035156 140.40625 "/></clipPath><clipPath id="46e87f659e"><path d="M 863 293 L 1439.785156 293 L 1439.785156 450 L 863 450 Z M 863 293 "/></clipPath><clipPath id="32a2cdfdd9"><path d="M 828 385 L 1439.785156 385 L 1439.785156 450 L 828 450 Z M 828 385 "/></clipPath><clipPath id="e4d705282b"><path d="M 1052 282 L 1439.785156 282 L 1439.785156 450 L 1052 450 Z M 1052 282 "/></clipPath></defs><g id="ed4c50588c"><rect x="0" width="1440" y="0" height="449.999984" style="fill:#ffffff;fill-opacity:1;stroke:none;"/><rect x="0" width="1440" y="0" height="449.999984" style="fill:#545454;fill-opacity:1;stroke:none;"/><path style=" stroke:none;fill-rule:nonzero;fill:#236297;fill-opacity:1;" d="M 784.167969 205.117188 C 711.230469 240.527344 624.070312 234.105469 547.242188 213.160156 C 468.421875 191.65625 393.847656 156.128906 314.5625 136.386719 C 226.078125 114.394531 131.390625 112.960938 43.484375 138.527344 C 32.996094 141.574219 12.042969 145.503906 0.691406 152.9375 L 0.691406 249.5625 C 1.023438 249.398438 1.34375 249.210938 1.652344 249.007812 C 77.566406 199.078125 170.917969 178.496094 261.546875 184.566406 C 352.792969 190.679688 440.199219 222.371094 530.164062 238.746094 C 624.40625 255.902344 732.738281 254.183594 810.269531 190.164062 C 801.910156 195.742188 793.210938 200.726562 784.167969 205.117188 Z M 784.167969 205.117188 "/><g clip-rule="nonzero" clip-path="url(#c9fa66fc69)"><path style=" stroke:none;fill-rule:nonzero;fill:#7dd4ff;fill-opacity:1;" d="M 283.910156 115.609375 C 353.351562 115.292969 418.453125 145.070312 481.675781 170.542969 C 539.539062 193.863281 600.160156 215.496094 662.476562 212.667969 C 742.574219 209.050781 821.847656 161.351562 859.605469 89.96875 C 802.453125 146.640625 721.046875 176.175781 640.84375 168.941406 C 586.597656 164.074219 535.253906 143.359375 483.070312 127.75 C 419.933594 108.886719 348.316406 95.132812 283.910156 115.609375 Z M 283.910156 115.609375 "/></g><g clip-rule="nonzero" clip-path="url(#68496e4a89)"><path style=" stroke:none;fill-rule:nonzero;fill:#509ccb;fill-opacity:1;" d="M 72.488281 240.738281 C 47.371094 252.007812 23.429688 265.386719 0.667969 280.878906 L 0.667969 438.726562 C 28.175781 388.484375 55.527344 343.046875 99.839844 303.898438 C 160.582031 250.253906 236.476562 216.195312 316.710938 205.566406 C 237.179688 194.167969 151.445312 205.40625 72.488281 240.738281 Z M 72.488281 240.738281 "/></g><g clip-rule="nonzero" clip-path="url(#ea3b443b69)"><path style=" stroke:none;fill-rule:evenodd;fill:#a2daf6;fill-opacity:1;" d="M 827.035156 467.753906 L 827.035156 538.980469 L 1439.78125 538.980469 L 1439.78125 140.40625 C 1397.808594 372.933594 1286.898438 382.125 999.675781 404.796875 C 913.128906 411.535156 857.675781 443.242188 827.035156 467.753906 Z M 827.035156 467.753906 "/></g><g clip-rule="nonzero" clip-path="url(#46e87f659e)"><path style=" stroke:none;fill-rule:evenodd;fill:#45beef;fill-opacity:1;" d="M 929.824219 538.980469 L 1439.78125 538.980469 L 1439.78125 293.585938 C 1351.390625 447.6875 1262.085938 370.175781 1087.757812 367.726562 C 911.59375 365.121094 861.808594 518.304688 863.800781 522.132812 Z M 929.824219 538.980469 "/></g><g clip-rule="nonzero" clip-path="url(#32a2cdfdd9)"><path style=" stroke:none;fill-rule:evenodd;fill:#00a2e9;fill-opacity:1;" d="M 828.570312 538.980469 L 1439.78125 538.980469 L 1439.78125 385.648438 C 1342.507812 463.15625 1284.601562 431.449219 1094.191406 402.191406 C 922.164062 375.84375 842.816406 511.257812 828.570312 538.980469 Z M 828.570312 538.980469 "/></g><g clip-rule="nonzero" clip-path="url(#e4d705282b)"><path style=" stroke:none;fill-rule:evenodd;fill:#0f8dca;fill-opacity:1;" d="M 1052.679688 538.980469 C 1170.9375 408.472656 1367.324219 609.90625 1439.78125 282.25 L 1439.78125 538.980469 Z M 1052.679688 538.980469 "/></g></g></svg>